<svg xmlns="http://www.w3.org/2000/svg" xmlns:xlink="http://www.w3.org/1999/xlink" width="556" zoomAndPan="magnify" viewBox="0 0 416.88 284.250005" height="379" preserveAspectRatio="xMidYMid meet" version="1.0"><defs><filter x="0%" y="0%" width="100%" height="100%" id="a198af7a0d"><feColorMatrix values="0 0 0 0 1 0 0 0 0 1 0 0 0 0 1 0 0 0 1 0" color-interpolation-filters="sRGB"/></filter><g/><clipPath id="3515f8cc0e"><path d="M 266.785156 89.421875 L 336.351562 89.421875 L 336.351562 158.988281 L 266.785156 158.988281 Z M 266.785156 89.421875 " clip-rule="nonzero"/></clipPath><mask id="d549c622ea"><g filter="url(#a198af7a0d)"><rect x="-41.688" width="500.256" fill="#000000" y="-28.425" height="341.100006" fill-opacity="0.498"/></g></mask><clipPath id="1bc592fe29"><path d="M 1.03125 0.421875 L 70.597656 0.421875 L 70.597656 69.988281 L 1.03125 69.988281 Z M 1.03125 0.421875 " clip-rule="nonzero"/></clipPath><clipPath id="8006c49929"><rect x="0" width="71" y="0" height="71"/></clipPath><clipPath id="9398c5a139"><path d="M 271.273438 89.421875 L 340.839844 89.421875 L 340.839844 158.988281 L 271.273438 158.988281 Z M 271.273438 89.421875 " clip-rule="nonzero"/></clipPath></defs><g clip-path="url(#3515f8cc0e)"><path fill="#fabba7" d="M 301.570312 95.746094 C 285.851562 95.746094 273.109375 108.488281 273.109375 124.207031 C 273.109375 139.921875 285.851562 152.664062 301.570312 152.664062 C 317.285156 152.664062 330.027344 139.921875 330.027344 124.207031 C 330.027344 108.488281 317.285156 95.746094 301.570312 95.746094 Z M 266.785156 124.207031 C 266.785156 104.996094 282.359375 89.421875 301.570312 89.421875 C 320.78125 89.421875 336.351562 104.996094 336.351562 124.207031 C 336.351562 143.417969 320.78125 158.988281 301.570312 158.988281 C 282.359375 158.988281 266.785156 143.417969 266.785156 124.207031 Z M 266.785156 124.207031 " fill-opacity="1" fill-rule="evenodd"/></g><path fill="#fabba7" d="M 291.027344 114.480469 L 272.074219 118.273438 L 270.835938 112.070312 L 289.789062 108.28125 C 297.566406 106.726562 305.574219 106.726562 313.351562 108.28125 L 332.304688 112.070312 L 331.066406 118.273438 L 312.113281 114.480469 C 305.152344 113.089844 297.988281 113.089844 291.027344 114.480469 Z M 291.027344 114.480469 " fill-opacity="1" fill-rule="evenodd"/><path fill="#fabba7" d="M 275.214844 136.402344 L 271.457031 136.402344 L 271.457031 130.078125 L 275.214844 130.078125 C 285.097656 130.078125 293.78125 136.628906 296.496094 146.132812 L 298.585938 153.453125 L 292.507812 155.191406 L 290.414062 147.871094 C 288.476562 141.082031 282.273438 136.402344 275.214844 136.402344 Z M 312.726562 147.871094 L 310.632812 155.191406 L 304.554688 153.453125 L 306.644531 146.132812 C 309.359375 136.628906 318.042969 130.078125 327.925781 130.078125 L 331.6875 130.078125 L 331.6875 136.402344 L 327.925781 136.402344 C 320.867188 136.402344 314.664062 141.082031 312.726562 147.871094 Z M 312.726562 147.871094 " fill-opacity="1" fill-rule="evenodd"/><path fill="#fabba7" d="M 301.570312 122.851562 C 299.992188 122.851562 298.710938 124.132812 298.710938 125.710938 C 298.710938 127.292969 299.992188 128.574219 301.570312 128.574219 C 303.152344 128.574219 304.429688 127.292969 304.429688 125.710938 C 304.429688 124.132812 303.152344 122.851562 301.570312 122.851562 Z M 292.386719 125.710938 C 292.386719 120.640625 296.496094 116.527344 301.570312 116.527344 C 306.644531 116.527344 310.753906 120.640625 310.753906 125.710938 C 310.753906 130.785156 306.644531 134.898438 301.570312 134.898438 C 296.496094 134.898438 292.386719 130.785156 292.386719 125.710938 Z M 292.386719 125.710938 " fill-opacity="1" fill-rule="evenodd"/><g fill="#fd6155" fill-opacity="0.302"><g transform="translate(101.638069, 167.122698)"><g><path d="M 26.082031 -21.558594 C 24.714844 -14.113281 19.335938 -10.457031 14.933594 -9.691406 C 10.582031 -8.933594 5.839844 -10.773438 5.207031 -14.40625 C 5.0625 -15.230469 5.011719 -16.1875 5.175781 -17.179688 L 8.75 -37.710938 C 9.441406 -41.574219 11.601562 -42.519531 12.921875 -42.75 C 14.1875 -42.96875 15.203125 -42.351562 15.492188 -40.699219 C 15.625 -39.929688 15.578125 -38.902344 15.328125 -37.722656 C 15.230469 -37.308594 15.242188 -36.914062 15.308594 -36.527344 C 15.644531 -34.601562 17.796875 -33.332031 19.941406 -33.703125 C 21.867188 -34.039062 23.785156 -35.734375 24.144531 -39.542969 C 24.28125 -41.039062 24.214844 -42.390625 24.015625 -43.546875 C 22.960938 -49.601562 17.558594 -52.292969 11.28125 -51.199219 C 7.261719 -50.5 1.328125 -47.765625 -0.152344 -39 L -3.613281 -18.148438 C -3.921875 -16.335938 -3.925781 -14.40625 -3.636719 -12.753906 C -2.382812 -5.542969 5.230469 -0.910156 14.808594 -2.578125 C 22.460938 -3.910156 31.304688 -9.476562 32.839844 -20.863281 C 32.875 -21.320312 32.863281 -21.714844 32.804688 -22.046875 C 32.46875 -23.972656 30.570312 -24.777344 28.863281 -24.480469 C 27.433594 -24.230469 26.183594 -23.277344 26.082031 -21.558594 Z M 26.082031 -21.558594 "/></g></g></g><g fill="#fd6155" fill-opacity="0.302"><g transform="translate(128.559199, 162.436634)"><g><path d="M 25.132812 -20.824219 C 23.980469 -15.066406 21.871094 -10.558594 19.558594 -10.15625 C 18.789062 -10.019531 18.28125 -10.667969 18.144531 -11.441406 C 18.085938 -11.769531 18.066406 -12.21875 18.15625 -12.691406 L 19.832031 -22.285156 C 19.96875 -23.441406 20.019531 -24.472656 19.855469 -25.40625 C 18.945312 -30.636719 11.953125 -31.691406 8.707031 -32.089844 C 8.796875 -32.558594 8.765625 -33.0625 8.6875 -33.503906 C 8.25 -36.035156 5.617188 -37.792969 3.140625 -37.359375 C -0.109375 -36.792969 -1.535156 -33.597656 -0.992188 -30.457031 C -0.75 -29.082031 -0.0078125 -27.738281 1.066406 -26.789062 L -1.066406 -15.242188 C -1.097656 -14.785156 -1.078125 -14.332031 -1.019531 -14.003906 C -0.703125 -12.1875 0.890625 -11.5 2.433594 -11.769531 C 3.972656 -12.035156 5.417969 -13.195312 5.773438 -15.070312 L 7.417969 -23.867188 C 9.042969 -23.640625 11.148438 -23.609375 11.476562 -21.738281 C 11.523438 -21.460938 11.523438 -21.121094 11.480469 -20.71875 L 10.230469 -13.578125 C 10.007812 -12.234375 9.988281 -11.042969 10.179688 -9.941406 C 11.015625 -5.152344 15.359375 -2.671875 19.929688 -3.46875 C 25.929688 -4.515625 30.453125 -10.804688 32.082031 -20.671875 C 32.132812 -21.023438 32.140625 -21.308594 32.09375 -21.582031 C 31.804688 -23.234375 29.796875 -24.019531 28.035156 -23.710938 C 26.601562 -23.460938 25.339844 -22.5625 25.132812 -20.824219 Z M 25.132812 -20.824219 "/></g></g></g><g fill="#fd6155" fill-opacity="0.302"><g transform="translate(154.599476, 157.903897)"><g><path d="M 28.765625 -21.457031 C 27.441406 -14.417969 24.902344 -11.085938 22.367188 -10.644531 C 21.378906 -10.472656 20.621094 -10.90625 20.488281 -11.675781 C 20.449219 -11.898438 20.445312 -12.238281 20.507812 -12.53125 L 23.859375 -32.0625 C 23.984375 -32.648438 23.953125 -33.15625 23.867188 -33.648438 C 23.480469 -35.851562 21.296875 -37.003906 19.316406 -36.660156 C 17.71875 -36.378906 16.230469 -35.15625 15.804688 -32.699219 L 12.691406 -14.746094 C 11.675781 -11.449219 9.761719 -8.449219 7.558594 -8.066406 C 6.734375 -7.921875 6.195312 -8.394531 6.050781 -9.222656 C 5.976562 -9.660156 5.960938 -10.398438 6.03125 -10.976562 L 9.042969 -29.199219 C 9.15625 -29.84375 9.171875 -30.410156 9.074219 -30.960938 C 8.683594 -33.21875 6.433594 -34.414062 4.394531 -34.0625 C 2.851562 -33.792969 1.363281 -32.570312 0.976562 -30.234375 L -2.195312 -10.339844 C -2.355469 -9.289062 -2.347656 -8.269531 -2.183594 -7.335938 C -1.40625 -2.875 2.753906 -0.480469 7.378906 -1.285156 C 10.679688 -1.859375 12.878906 -3.886719 14.535156 -6.445312 C 16.542969 -4.355469 19.765625 -3.441406 23.066406 -4.015625 C 28.296875 -4.925781 33.734375 -9.21875 35.648438 -21.351562 C 35.703125 -21.699219 35.699219 -22.039062 35.640625 -22.371094 C 35.335938 -24.132812 33.5 -24.890625 31.796875 -24.59375 C 30.363281 -24.34375 29.011719 -23.316406 28.765625 -21.457031 Z M 28.765625 -21.457031 "/></g></g></g><g fill="#fd6155" fill-opacity="0.302"><g transform="translate(184.273274, 152.738685)"><g><path d="M 8.304688 -39.960938 C 10.78125 -40.390625 12.460938 -42.78125 12.023438 -45.316406 C 11.589844 -47.792969 9.207031 -49.421875 6.730469 -48.988281 C 4.253906 -48.558594 2.5625 -46.222656 2.992188 -43.742188 C 3.433594 -41.210938 5.824219 -39.527344 8.304688 -39.960938 Z M 5.757812 -10.589844 L 8.804688 -28.929688 C 8.898438 -29.683594 9.042969 -30.503906 8.945312 -31.054688 C 8.523438 -33.476562 6.488281 -34.425781 4.613281 -34.101562 C 2.90625 -33.800781 1.300781 -32.273438 0.871094 -29.535156 C 0.0117188 -24.050781 -1.160156 -17.097656 -2.03125 -11.671875 C -2.171875 -10.511719 -2.351562 -8.949219 -2.1875 -8.015625 C -1.289062 -2.839844 3.523438 -0.613281 8.589844 -1.496094 C 13.984375 -2.433594 19.355469 -6.773438 21.226562 -18.839844 C 21.277344 -19.1875 21.273438 -19.527344 21.21875 -19.859375 C 20.921875 -21.566406 19.085938 -22.324219 17.433594 -22.039062 C 15.949219 -21.777344 14.597656 -20.75 14.234375 -18.925781 C 12.890625 -11.320312 10.367188 -8.554688 8.164062 -8.171875 C 6.898438 -7.949219 5.929688 -8.632812 5.746094 -9.679688 C 5.699219 -9.953125 5.707031 -10.238281 5.757812 -10.589844 Z M 5.757812 -10.589844 "/></g></g></g><g fill="#fd6155" fill-opacity="0.302"><g transform="translate(199.468022, 150.09379)"><g><path d="M 26.523438 -20.667969 C 25.765625 -17.191406 24.230469 -14.597656 21.957031 -12.671875 C 21.945312 -13.40625 21.9375 -14.085938 21.816406 -14.800781 C 21.257812 -17.996094 19.023438 -20.726562 17.03125 -23.042969 C 15.605469 -24.726562 14.179688 -26.40625 13.660156 -28.074219 C 15.089844 -29.003906 15.992188 -30.976562 15.707031 -32.625 C 15.292969 -34.996094 13.09375 -36.878906 10.339844 -36.402344 C 8.25 -36.035156 6.339844 -34.625 5.664062 -32.296875 C 4.246094 -27.738281 2.671875 -23.097656 1.1875 -18.585938 C -2.335938 -17.007812 -3.425781 -12.507812 -2.8125 -8.984375 C -1.871094 -3.589844 4.25 -0.34375 13.996094 -2.039062 C 23.574219 -3.707031 31.53125 -8.835938 33.449219 -20.628906 C 33.519531 -20.867188 33.472656 -21.140625 33.433594 -21.363281 C 33.15625 -22.957031 31.140625 -23.796875 29.378906 -23.492188 C 28.054688 -23.261719 26.851562 -22.371094 26.523438 -20.667969 Z M 8.8125 -19.117188 L 9.125 -20.25 C 11.121094 -18.554688 12.902344 -16.144531 13.351562 -13.554688 C 13.804688 -10.96875 12.800781 -8.582031 9.902344 -7.964844 C 8.03125 -7.636719 6.234375 -8.175781 5.378906 -9.5 C 5.839844 -9.46875 6.28125 -9.542969 6.664062 -9.613281 C 9.859375 -10.167969 11.261719 -13.191406 10.792969 -15.890625 C 10.570312 -17.15625 9.910156 -18.34375 8.8125 -19.117188 Z M 8.8125 -19.117188 "/></g></g></g><g fill="#fd6155" fill-opacity="0.302"><g transform="translate(226.93969, 145.311896)"><g><path d="M 25.15625 -20.375 C 23.84375 -13.566406 18.515625 -9.972656 13.835938 -9.15625 C 9.816406 -8.457031 6.949219 -9.945312 6.507812 -12.476562 C 6.421875 -12.972656 6.390625 -13.476562 6.515625 -14.066406 L 6.773438 -15.1875 C 8.542969 -14.476562 10.636719 -14.160156 12.839844 -14.542969 C 17.851562 -15.417969 21.707031 -19.320312 22.332031 -24.535156 C 22.425781 -25.628906 22.410156 -26.703125 22.246094 -27.640625 C 21.335938 -32.871094 16.507812 -36.167969 10.285156 -35.085938 C 5.386719 -34.234375 1.09375 -30.539062 0.125 -24.695312 L -1.484375 -14.714844 C -1.695312 -13.320312 -1.738281 -11.949219 -1.519531 -10.683594 C -0.378906 -4.132812 6.496094 -1.128906 14.535156 -2.53125 C 22.1875 -3.863281 30.234375 -9.121094 32.039062 -20.269531 C 32.125 -20.738281 32.113281 -21.132812 32.054688 -21.460938 C 31.757812 -23.167969 30.054688 -23.835938 28.402344 -23.550781 C 26.863281 -23.28125 25.355469 -22.167969 25.15625 -20.375 Z M 11.25 -28.5625 C 12.792969 -28.828125 14.003906 -27.734375 14.28125 -26.140625 C 14.359375 -25.699219 14.378906 -25.25 14.292969 -24.78125 C 14.058594 -22.867188 12.519531 -21.917969 10.871094 -21.632812 C 9.824219 -21.449219 8.738281 -21.488281 7.890625 -21.792969 L 8.472656 -25.296875 C 8.78125 -27.109375 9.984375 -28.339844 11.25 -28.5625 Z M 11.25 -28.5625 "/></g></g></g><g fill="#fd6155" fill-opacity="0.502"><g transform="translate(105.073892, 165.743283)"><g><path d="M 26.082031 -21.558594 C 24.714844 -14.113281 19.335938 -10.457031 14.933594 -9.691406 C 10.582031 -8.933594 5.839844 -10.773438 5.207031 -14.40625 C 5.0625 -15.230469 5.011719 -16.1875 5.175781 -17.179688 L 8.75 -37.710938 C 9.441406 -41.574219 11.601562 -42.519531 12.921875 -42.75 C 14.1875 -42.96875 15.203125 -42.351562 15.492188 -40.699219 C 15.625 -39.929688 15.578125 -38.902344 15.328125 -37.722656 C 15.230469 -37.308594 15.242188 -36.914062 15.308594 -36.527344 C 15.644531 -34.601562 17.796875 -33.332031 19.941406 -33.703125 C 21.867188 -34.039062 23.785156 -35.734375 24.144531 -39.542969 C 24.28125 -41.039062 24.214844 -42.390625 24.015625 -43.546875 C 22.960938 -49.601562 17.558594 -52.292969 11.28125 -51.199219 C 7.261719 -50.5 1.328125 -47.765625 -0.152344 -39 L -3.613281 -18.148438 C -3.921875 -16.335938 -3.925781 -14.40625 -3.636719 -12.753906 C -2.382812 -5.542969 5.230469 -0.910156 14.808594 -2.578125 C 22.460938 -3.910156 31.304688 -9.476562 32.839844 -20.863281 C 32.875 -21.320312 32.863281 -21.714844 32.804688 -22.046875 C 32.46875 -23.972656 30.570312 -24.777344 28.863281 -24.480469 C 27.433594 -24.230469 26.183594 -23.277344 26.082031 -21.558594 Z M 26.082031 -21.558594 "/></g></g></g><g fill="#fd6155" fill-opacity="0.502"><g transform="translate(131.995022, 161.057218)"><g><path d="M 25.132812 -20.824219 C 23.980469 -15.066406 21.871094 -10.558594 19.558594 -10.15625 C 18.789062 -10.019531 18.28125 -10.667969 18.144531 -11.441406 C 18.085938 -11.769531 18.066406 -12.21875 18.15625 -12.691406 L 19.832031 -22.285156 C 19.96875 -23.441406 20.019531 -24.472656 19.855469 -25.40625 C 18.945312 -30.636719 11.953125 -31.691406 8.707031 -32.089844 C 8.796875 -32.558594 8.765625 -33.0625 8.6875 -33.503906 C 8.25 -36.035156 5.617188 -37.792969 3.140625 -37.359375 C -0.109375 -36.792969 -1.535156 -33.597656 -0.992188 -30.457031 C -0.75 -29.082031 -0.0078125 -27.738281 1.066406 -26.789062 L -1.066406 -15.242188 C -1.097656 -14.785156 -1.078125 -14.332031 -1.019531 -14.003906 C -0.703125 -12.1875 0.890625 -11.5 2.433594 -11.769531 C 3.972656 -12.035156 5.417969 -13.195312 5.773438 -15.070312 L 7.417969 -23.867188 C 9.042969 -23.640625 11.148438 -23.609375 11.476562 -21.738281 C 11.523438 -21.460938 11.523438 -21.121094 11.480469 -20.71875 L 10.230469 -13.578125 C 10.007812 -12.234375 9.988281 -11.042969 10.179688 -9.941406 C 11.015625 -5.152344 15.359375 -2.671875 19.929688 -3.46875 C 25.929688 -4.515625 30.453125 -10.804688 32.082031 -20.671875 C 32.132812 -21.023438 32.140625 -21.308594 32.09375 -21.582031 C 31.804688 -23.234375 29.796875 -24.019531 28.035156 -23.710938 C 26.601562 -23.460938 25.339844 -22.5625 25.132812 -20.824219 Z M 25.132812 -20.824219 "/></g></g></g><g fill="#fd6155" fill-opacity="0.502"><g transform="translate(158.035299, 156.524481)"><g><path d="M 28.765625 -21.457031 C 27.441406 -14.417969 24.902344 -11.085938 22.367188 -10.644531 C 21.378906 -10.472656 20.621094 -10.90625 20.488281 -11.675781 C 20.449219 -11.898438 20.445312 -12.238281 20.507812 -12.53125 L 23.859375 -32.0625 C 23.984375 -32.648438 23.953125 -33.15625 23.867188 -33.648438 C 23.480469 -35.851562 21.296875 -37.003906 19.316406 -36.660156 C 17.71875 -36.378906 16.230469 -35.15625 15.804688 -32.699219 L 12.691406 -14.746094 C 11.675781 -11.449219 9.761719 -8.449219 7.558594 -8.066406 C 6.734375 -7.921875 6.195312 -8.394531 6.050781 -9.222656 C 5.976562 -9.660156 5.960938 -10.398438 6.03125 -10.976562 L 9.042969 -29.199219 C 9.15625 -29.84375 9.171875 -30.410156 9.074219 -30.960938 C 8.683594 -33.21875 6.433594 -34.414062 4.394531 -34.0625 C 2.851562 -33.792969 1.363281 -32.570312 0.976562 -30.234375 L -2.195312 -10.339844 C -2.355469 -9.289062 -2.347656 -8.269531 -2.183594 -7.335938 C -1.40625 -2.875 2.753906 -0.480469 7.378906 -1.285156 C 10.679688 -1.859375 12.878906 -3.886719 14.535156 -6.445312 C 16.542969 -4.355469 19.765625 -3.441406 23.066406 -4.015625 C 28.296875 -4.925781 33.734375 -9.21875 35.648438 -21.351562 C 35.703125 -21.699219 35.699219 -22.039062 35.640625 -22.371094 C 35.335938 -24.132812 33.5 -24.890625 31.796875 -24.59375 C 30.363281 -24.34375 29.011719 -23.316406 28.765625 -21.457031 Z M 28.765625 -21.457031 "/></g></g></g><g fill="#fd6155" fill-opacity="0.502"><g transform="translate(187.709097, 151.35927)"><g><path d="M 8.304688 -39.960938 C 10.78125 -40.390625 12.460938 -42.78125 12.023438 -45.316406 C 11.589844 -47.792969 9.207031 -49.421875 6.730469 -48.988281 C 4.253906 -48.558594 2.5625 -46.222656 2.992188 -43.742188 C 3.433594 -41.210938 5.824219 -39.527344 8.304688 -39.960938 Z M 5.757812 -10.589844 L 8.804688 -28.929688 C 8.898438 -29.683594 9.042969 -30.503906 8.945312 -31.054688 C 8.523438 -33.476562 6.488281 -34.425781 4.613281 -34.101562 C 2.90625 -33.800781 1.300781 -32.273438 0.871094 -29.535156 C 0.0117188 -24.050781 -1.160156 -17.097656 -2.03125 -11.671875 C -2.171875 -10.511719 -2.351562 -8.949219 -2.1875 -8.015625 C -1.289062 -2.839844 3.523438 -0.613281 8.589844 -1.496094 C 13.984375 -2.433594 19.355469 -6.773438 21.226562 -18.839844 C 21.277344 -19.1875 21.273438 -19.527344 21.21875 -19.859375 C 20.921875 -21.566406 19.085938 -22.324219 17.433594 -22.039062 C 15.949219 -21.777344 14.597656 -20.75 14.234375 -18.925781 C 12.890625 -11.320312 10.367188 -8.554688 8.164062 -8.171875 C 6.898438 -7.949219 5.929688 -8.632812 5.746094 -9.679688 C 5.699219 -9.953125 5.707031 -10.238281 5.757812 -10.589844 Z M 5.757812 -10.589844 "/></g></g></g><g fill="#fd6155" fill-opacity="0.502"><g transform="translate(202.903844, 148.714375)"><g><path d="M 26.523438 -20.667969 C 25.765625 -17.191406 24.230469 -14.597656 21.957031 -12.671875 C 21.945312 -13.40625 21.9375 -14.085938 21.816406 -14.800781 C 21.257812 -17.996094 19.023438 -20.726562 17.03125 -23.042969 C 15.605469 -24.726562 14.179688 -26.40625 13.660156 -28.074219 C 15.089844 -29.003906 15.992188 -30.976562 15.707031 -32.625 C 15.292969 -34.996094 13.09375 -36.878906 10.339844 -36.402344 C 8.25 -36.035156 6.339844 -34.625 5.664062 -32.296875 C 4.246094 -27.738281 2.671875 -23.097656 1.1875 -18.585938 C -2.335938 -17.007812 -3.425781 -12.507812 -2.8125 -8.984375 C -1.871094 -3.589844 4.25 -0.34375 13.996094 -2.039062 C 23.574219 -3.707031 31.53125 -8.835938 33.449219 -20.628906 C 33.519531 -20.867188 33.472656 -21.140625 33.433594 -21.363281 C 33.15625 -22.957031 31.140625 -23.796875 29.378906 -23.492188 C 28.054688 -23.261719 26.851562 -22.371094 26.523438 -20.667969 Z M 8.8125 -19.117188 L 9.125 -20.25 C 11.121094 -18.554688 12.902344 -16.144531 13.351562 -13.554688 C 13.804688 -10.96875 12.800781 -8.582031 9.902344 -7.964844 C 8.03125 -7.636719 6.234375 -8.175781 5.378906 -9.5 C 5.839844 -9.46875 6.28125 -9.542969 6.664062 -9.613281 C 9.859375 -10.167969 11.261719 -13.191406 10.792969 -15.890625 C 10.570312 -17.15625 9.910156 -18.34375 8.8125 -19.117188 Z M 8.8125 -19.117188 "/></g></g></g><g fill="#fd6155" fill-opacity="0.502"><g transform="translate(230.375512, 143.932481)"><g><path d="M 25.15625 -20.375 C 23.84375 -13.566406 18.515625 -9.972656 13.835938 -9.15625 C 9.816406 -8.457031 6.949219 -9.945312 6.507812 -12.476562 C 6.421875 -12.972656 6.390625 -13.476562 6.515625 -14.066406 L 6.773438 -15.1875 C 8.542969 -14.476562 10.636719 -14.160156 12.839844 -14.542969 C 17.851562 -15.417969 21.707031 -19.320312 22.332031 -24.535156 C 22.425781 -25.628906 22.410156 -26.703125 22.246094 -27.640625 C 21.335938 -32.871094 16.507812 -36.167969 10.285156 -35.085938 C 5.386719 -34.234375 1.09375 -30.539062 0.125 -24.695312 L -1.484375 -14.714844 C -1.695312 -13.320312 -1.738281 -11.949219 -1.519531 -10.683594 C -0.378906 -4.132812 6.496094 -1.128906 14.535156 -2.53125 C 22.1875 -3.863281 30.234375 -9.121094 32.039062 -20.269531 C 32.125 -20.738281 32.113281 -21.132812 32.054688 -21.460938 C 31.757812 -23.167969 30.054688 -23.835938 28.402344 -23.550781 C 26.863281 -23.28125 25.355469 -22.167969 25.15625 -20.375 Z M 11.25 -28.5625 C 12.792969 -28.828125 14.003906 -27.734375 14.28125 -26.140625 C 14.359375 -25.699219 14.378906 -25.25 14.292969 -24.78125 C 14.058594 -22.867188 12.519531 -21.917969 10.871094 -21.632812 C 9.824219 -21.449219 8.738281 -21.488281 7.890625 -21.792969 L 8.472656 -25.296875 C 8.78125 -27.109375 9.984375 -28.339844 11.25 -28.5625 Z M 11.25 -28.5625 "/></g></g></g><g fill="#f6f3e4" fill-opacity="1"><g transform="translate(108.509714, 164.363884)"><g><path d="M 26.082031 -21.558594 C 24.714844 -14.113281 19.335938 -10.457031 14.933594 -9.691406 C 10.582031 -8.933594 5.839844 -10.773438 5.207031 -14.40625 C 5.0625 -15.230469 5.011719 -16.1875 5.175781 -17.179688 L 8.75 -37.710938 C 9.441406 -41.574219 11.601562 -42.519531 12.921875 -42.75 C 14.1875 -42.96875 15.203125 -42.351562 15.492188 -40.699219 C 15.625 -39.929688 15.578125 -38.902344 15.328125 -37.722656 C 15.230469 -37.308594 15.242188 -36.914062 15.308594 -36.527344 C 15.644531 -34.601562 17.796875 -33.332031 19.941406 -33.703125 C 21.867188 -34.039062 23.785156 -35.734375 24.144531 -39.542969 C 24.28125 -41.039062 24.214844 -42.390625 24.015625 -43.546875 C 22.960938 -49.601562 17.558594 -52.292969 11.28125 -51.199219 C 7.261719 -50.5 1.328125 -47.765625 -0.152344 -39 L -3.613281 -18.148438 C -3.921875 -16.335938 -3.925781 -14.40625 -3.636719 -12.753906 C -2.382812 -5.542969 5.230469 -0.910156 14.808594 -2.578125 C 22.460938 -3.910156 31.304688 -9.476562 32.839844 -20.863281 C 32.875 -21.320312 32.863281 -21.714844 32.804688 -22.046875 C 32.46875 -23.972656 30.570312 -24.777344 28.863281 -24.480469 C 27.433594 -24.230469 26.183594 -23.277344 26.082031 -21.558594 Z M 26.082031 -21.558594 "/></g></g></g><g fill="#f6f3e4" fill-opacity="1"><g transform="translate(135.430844, 159.67782)"><g><path d="M 25.132812 -20.824219 C 23.980469 -15.066406 21.871094 -10.558594 19.558594 -10.15625 C 18.789062 -10.019531 18.28125 -10.667969 18.144531 -11.441406 C 18.085938 -11.769531 18.066406 -12.21875 18.15625 -12.691406 L 19.832031 -22.285156 C 19.96875 -23.441406 20.019531 -24.472656 19.855469 -25.40625 C 18.945312 -30.636719 11.953125 -31.691406 8.707031 -32.089844 C 8.796875 -32.558594 8.765625 -33.0625 8.6875 -33.503906 C 8.25 -36.035156 5.617188 -37.792969 3.140625 -37.359375 C -0.109375 -36.792969 -1.535156 -33.597656 -0.992188 -30.457031 C -0.75 -29.082031 -0.0078125 -27.738281 1.066406 -26.789062 L -1.066406 -15.242188 C -1.097656 -14.785156 -1.078125 -14.332031 -1.019531 -14.003906 C -0.703125 -12.1875 0.890625 -11.5 2.433594 -11.769531 C 3.972656 -12.035156 5.417969 -13.195312 5.773438 -15.070312 L 7.417969 -23.867188 C 9.042969 -23.640625 11.148438 -23.609375 11.476562 -21.738281 C 11.523438 -21.460938 11.523438 -21.121094 11.480469 -20.71875 L 10.230469 -13.578125 C 10.007812 -12.234375 9.988281 -11.042969 10.179688 -9.941406 C 11.015625 -5.152344 15.359375 -2.671875 19.929688 -3.46875 C 25.929688 -4.515625 30.453125 -10.804688 32.082031 -20.671875 C 32.132812 -21.023438 32.140625 -21.308594 32.09375 -21.582031 C 31.804688 -23.234375 29.796875 -24.019531 28.035156 -23.710938 C 26.601562 -23.460938 25.339844 -22.5625 25.132812 -20.824219 Z M 25.132812 -20.824219 "/></g></g></g><g fill="#f6f3e4" fill-opacity="1"><g transform="translate(161.471121, 155.145082)"><g><path d="M 28.765625 -21.457031 C 27.441406 -14.417969 24.902344 -11.085938 22.367188 -10.644531 C 21.378906 -10.472656 20.621094 -10.90625 20.488281 -11.675781 C 20.449219 -11.898438 20.445312 -12.238281 20.507812 -12.53125 L 23.859375 -32.0625 C 23.984375 -32.648438 23.953125 -33.15625 23.867188 -33.648438 C 23.480469 -35.851562 21.296875 -37.003906 19.316406 -36.660156 C 17.71875 -36.378906 16.230469 -35.15625 15.804688 -32.699219 L 12.691406 -14.746094 C 11.675781 -11.449219 9.761719 -8.449219 7.558594 -8.066406 C 6.734375 -7.921875 6.195312 -8.394531 6.050781 -9.222656 C 5.976562 -9.660156 5.960938 -10.398438 6.03125 -10.976562 L 9.042969 -29.199219 C 9.15625 -29.84375 9.171875 -30.410156 9.074219 -30.960938 C 8.683594 -33.21875 6.433594 -34.414062 4.394531 -34.0625 C 2.851562 -33.792969 1.363281 -32.570312 0.976562 -30.234375 L -2.195312 -10.339844 C -2.355469 -9.289062 -2.347656 -8.269531 -2.183594 -7.335938 C -1.40625 -2.875 2.753906 -0.480469 7.378906 -1.285156 C 10.679688 -1.859375 12.878906 -3.886719 14.535156 -6.445312 C 16.542969 -4.355469 19.765625 -3.441406 23.066406 -4.015625 C 28.296875 -4.925781 33.734375 -9.21875 35.648438 -21.351562 C 35.703125 -21.699219 35.699219 -22.039062 35.640625 -22.371094 C 35.335938 -24.132812 33.5 -24.890625 31.796875 -24.59375 C 30.363281 -24.34375 29.011719 -23.316406 28.765625 -21.457031 Z M 28.765625 -21.457031 "/></g></g></g><g fill="#f6f3e4" fill-opacity="1"><g transform="translate(191.144919, 149.979871)"><g><path d="M 8.304688 -39.960938 C 10.78125 -40.390625 12.460938 -42.78125 12.023438 -45.316406 C 11.589844 -47.792969 9.207031 -49.421875 6.730469 -48.988281 C 4.253906 -48.558594 2.5625 -46.222656 2.992188 -43.742188 C 3.433594 -41.210938 5.824219 -39.527344 8.304688 -39.960938 Z M 5.757812 -10.589844 L 8.804688 -28.929688 C 8.898438 -29.683594 9.042969 -30.503906 8.945312 -31.054688 C 8.523438 -33.476562 6.488281 -34.425781 4.613281 -34.101562 C 2.90625 -33.800781 1.300781 -32.273438 0.871094 -29.535156 C 0.0117188 -24.050781 -1.160156 -17.097656 -2.03125 -11.671875 C -2.171875 -10.511719 -2.351562 -8.949219 -2.1875 -8.015625 C -1.289062 -2.839844 3.523438 -0.613281 8.589844 -1.496094 C 13.984375 -2.433594 19.355469 -6.773438 21.226562 -18.839844 C 21.277344 -19.1875 21.273438 -19.527344 21.21875 -19.859375 C 20.921875 -21.566406 19.085938 -22.324219 17.433594 -22.039062 C 15.949219 -21.777344 14.597656 -20.75 14.234375 -18.925781 C 12.890625 -11.320312 10.367188 -8.554688 8.164062 -8.171875 C 6.898438 -7.949219 5.929688 -8.632812 5.746094 -9.679688 C 5.699219 -9.953125 5.707031 -10.238281 5.757812 -10.589844 Z M 5.757812 -10.589844 "/></g></g></g><g fill="#f6f3e4" fill-opacity="1"><g transform="translate(206.339667, 147.334976)"><g><path d="M 26.523438 -20.667969 C 25.765625 -17.191406 24.230469 -14.597656 21.957031 -12.671875 C 21.945312 -13.40625 21.9375 -14.085938 21.816406 -14.800781 C 21.257812 -17.996094 19.023438 -20.726562 17.03125 -23.042969 C 15.605469 -24.726562 14.179688 -26.40625 13.660156 -28.074219 C 15.089844 -29.003906 15.992188 -30.976562 15.707031 -32.625 C 15.292969 -34.996094 13.09375 -36.878906 10.339844 -36.402344 C 8.25 -36.035156 6.339844 -34.625 5.664062 -32.296875 C 4.246094 -27.738281 2.671875 -23.097656 1.1875 -18.585938 C -2.335938 -17.007812 -3.425781 -12.507812 -2.8125 -8.984375 C -1.871094 -3.589844 4.25 -0.34375 13.996094 -2.039062 C 23.574219 -3.707031 31.53125 -8.835938 33.449219 -20.628906 C 33.519531 -20.867188 33.472656 -21.140625 33.433594 -21.363281 C 33.15625 -22.957031 31.140625 -23.796875 29.378906 -23.492188 C 28.054688 -23.261719 26.851562 -22.371094 26.523438 -20.667969 Z M 8.8125 -19.117188 L 9.125 -20.25 C 11.121094 -18.554688 12.902344 -16.144531 13.351562 -13.554688 C 13.804688 -10.96875 12.800781 -8.582031 9.902344 -7.964844 C 8.03125 -7.636719 6.234375 -8.175781 5.378906 -9.5 C 5.839844 -9.46875 6.28125 -9.542969 6.664062 -9.613281 C 9.859375 -10.167969 11.261719 -13.191406 10.792969 -15.890625 C 10.570312 -17.15625 9.910156 -18.34375 8.8125 -19.117188 Z M 8.8125 -19.117188 "/></g></g></g><g fill="#f6f3e4" fill-opacity="1"><g transform="translate(233.811335, 142.553082)"><g><path d="M 25.15625 -20.375 C 23.84375 -13.566406 18.515625 -9.972656 13.835938 -9.15625 C 9.816406 -8.457031 6.949219 -9.945312 6.507812 -12.476562 C 6.421875 -12.972656 6.390625 -13.476562 6.515625 -14.066406 L 6.773438 -15.1875 C 8.542969 -14.476562 10.636719 -14.160156 12.839844 -14.542969 C 17.851562 -15.417969 21.707031 -19.320312 22.332031 -24.535156 C 22.425781 -25.628906 22.410156 -26.703125 22.246094 -27.640625 C 21.335938 -32.871094 16.507812 -36.167969 10.285156 -35.085938 C 5.386719 -34.234375 1.09375 -30.539062 0.125 -24.695312 L -1.484375 -14.714844 C -1.695312 -13.320312 -1.738281 -11.949219 -1.519531 -10.683594 C -0.378906 -4.132812 6.496094 -1.128906 14.535156 -2.53125 C 22.1875 -3.863281 30.234375 -9.121094 32.039062 -20.269531 C 32.125 -20.738281 32.113281 -21.132812 32.054688 -21.460938 C 31.757812 -23.167969 30.054688 -23.835938 28.402344 -23.550781 C 26.863281 -23.28125 25.355469 -22.167969 25.15625 -20.375 Z M 11.25 -28.5625 C 12.792969 -28.828125 14.003906 -27.734375 14.28125 -26.140625 C 14.359375 -25.699219 14.378906 -25.25 14.292969 -24.78125 C 14.058594 -22.867188 12.519531 -21.917969 10.871094 -21.632812 C 9.824219 -21.449219 8.738281 -21.488281 7.890625 -21.792969 L 8.472656 -25.296875 C 8.78125 -27.109375 9.984375 -28.339844 11.25 -28.5625 Z M 11.25 -28.5625 "/></g></g></g><g fill="#fd6155" fill-opacity="0.302"><g transform="translate(100.231466, 203.670183)"><g><path d="M 19.636719 -15.5 C 18.5 -10.023438 14.464844 -7.40625 11.199219 -6.914062 C 7.96875 -6.425781 4.496094 -7.867188 4.085938 -10.5625 C 3.996094 -11.175781 3.972656 -11.882812 4.113281 -12.613281 L 7.09375 -27.726562 C 7.667969 -30.574219 9.277344 -31.234375 10.257812 -31.382812 C 11.199219 -31.523438 11.9375 -31.050781 12.125 -29.824219 C 12.210938 -29.253906 12.160156 -28.492188 11.953125 -27.628906 C 11.875 -27.324219 11.878906 -27.03125 11.921875 -26.746094 C 12.136719 -25.316406 13.703125 -24.339844 15.296875 -24.582031 C 16.726562 -24.796875 18.171875 -26.019531 18.5 -28.824219 C 18.625 -29.929688 18.601562 -30.929688 18.472656 -31.785156 C 17.792969 -36.28125 13.84375 -38.359375 9.1875 -37.65625 C 6.203125 -37.203125 1.773438 -35.28125 0.535156 -28.828125 L -2.371094 -13.472656 C -2.628906 -12.136719 -2.664062 -10.710938 -2.476562 -9.488281 C -1.667969 -4.136719 3.878906 -0.585938 10.988281 -1.660156 C 16.667969 -2.515625 23.296875 -6.484375 24.621094 -14.875 C 24.652344 -15.214844 24.648438 -15.503906 24.613281 -15.75 C 24.394531 -17.179688 23.007812 -17.804688 21.738281 -17.613281 C 20.679688 -17.453125 19.738281 -16.769531 19.636719 -15.5 Z M 19.636719 -15.5 "/></g></g></g><g fill="#fd6155" fill-opacity="0.302"><g transform="translate(120.203085, 200.653551)"><g><path d="M 15.988281 -11.148438 C 15.996094 -11.105469 15.898438 -11.761719 15.617188 -12.511719 C 15.871094 -12.757812 16.109375 -13.128906 16.296875 -13.535156 C 16.839844 -14.660156 17.527344 -18.398438 17.28125 -20.035156 C 16.652344 -24.199219 12.800781 -26.460938 8.386719 -25.792969 C 4.546875 -25.214844 1.234375 -22.539062 0.476562 -18.707031 L -1.234375 -9.839844 C -1.449219 -8.765625 -1.457031 -7.71875 -1.324219 -6.820312 C -0.675781 -2.53125 3.390625 -0.511719 7.558594 -1.140625 C 10.742188 -1.621094 13.488281 -3.082031 14.761719 -6.28125 C 15.527344 -6.1875 16.402344 -6.195312 17.261719 -6.324219 C 22.082031 -7.054688 25.363281 -11.058594 26.105469 -15.558594 C 26.160156 -16.027344 26.179688 -16.445312 26.121094 -16.816406 C 25.894531 -18.324219 24.660156 -19.015625 23.476562 -18.839844 C 22.375 -18.671875 21.328125 -17.84375 21.109375 -16.265625 C 20.59375 -13.597656 18.976562 -11.558594 16.566406 -11.191406 C 16.40625 -11.167969 16.160156 -11.132812 15.988281 -11.148438 Z M 11.242188 -16.863281 C 11.171875 -16.480469 11.101562 -16.132812 11.109375 -15.800781 C 8.824219 -15.707031 7.101562 -13.566406 7.472656 -11.113281 C 7.722656 -9.730469 8.527344 -9.101562 9.402344 -8.566406 C 9.085938 -7.054688 8.007812 -6.179688 6.742188 -5.992188 C 5.148438 -5.75 4.589844 -6.667969 4.445312 -7.648438 C 4.328125 -8.425781 4.417969 -9.191406 4.519531 -9.625 L 6.167969 -18.355469 C 6.457031 -19.777344 7.769531 -20.769531 9.035156 -20.960938 C 10.300781 -21.152344 11.246094 -20.417969 11.390625 -19.476562 C 11.5 -18.742188 11.398438 -17.765625 11.242188 -16.863281 Z M 11.242188 -16.863281 "/></g></g></g><g fill="#fd6155" fill-opacity="0.302"><g transform="translate(141.522485, 197.433343)"><g><path d="M 21.015625 -15.207031 C 19.960938 -10.035156 18.015625 -7.691406 16.097656 -7.402344 C 15.359375 -7.292969 14.898438 -7.597656 14.792969 -8.292969 C 14.75 -8.578125 14.78125 -8.917969 14.839844 -9.34375 L 16.660156 -18.894531 C 16.820312 -19.753906 16.875 -20.515625 16.769531 -21.210938 C 16.273438 -24.476562 13.125 -26.507812 9.859375 -26.015625 C 8.265625 -25.773438 7.054688 -25.214844 6.109375 -24.277344 C 5.753906 -24.976562 4.671875 -25.230469 3.566406 -25.066406 C 2.425781 -24.890625 1.402344 -24.195312 1.164062 -22.988281 L -2.773438 -2.882812 C -2.84375 -2.496094 -2.832031 -2.164062 -2.785156 -1.835938 C -2.554688 -0.324219 -1.253906 0.273438 0.0546875 0.0742188 C 1.484375 -0.140625 2.980469 -1.285156 3.316406 -3.214844 C 4.148438 -7.394531 5.261719 -13.289062 6.058594 -17.417969 C 6.855469 -19.628906 8.136719 -20.824219 9.28125 -20.996094 C 10.015625 -21.109375 10.621094 -20.699219 10.738281 -19.921875 C 10.78125 -19.636719 10.753906 -19.257812 10.6875 -18.871094 L 8.976562 -10.003906 C 8.792969 -9.015625 8.722656 -8.085938 8.851562 -7.226562 C 9.421875 -3.46875 12.828125 -1.9375 16.300781 -2.460938 C 20.464844 -3.089844 24.492188 -6.582031 26.109375 -14.972656 C 26.179688 -15.320312 26.214844 -15.660156 26.171875 -15.945312 C 25.972656 -17.25 24.683594 -17.765625 23.457031 -17.582031 C 22.355469 -17.414062 21.222656 -16.617188 21.015625 -15.207031 Z M 21.015625 -15.207031 "/></g></g></g><g fill="#fd6155" fill-opacity="0.302"><g transform="translate(162.964415, 194.194628)"><g><path d="M 12.84375 -13.722656 C 11.886719 -8.980469 9.640625 -6.429688 7.273438 -6.070312 C 5.800781 -5.847656 4.765625 -6.613281 4.601562 -7.714844 C 4.558594 -8 4.589844 -8.339844 4.628906 -8.636719 L 6.910156 -20.640625 L 9.566406 -21.039062 C 11.648438 -21.355469 12.53125 -22.992188 12.324219 -24.339844 C 12.164062 -25.402344 11.328125 -26.238281 9.777344 -26.003906 L 7.9375 -25.726562 L 9.472656 -34.105469 C 9.511719 -34.402344 9.515625 -34.652344 9.476562 -34.898438 C 9.25 -36.410156 8.003906 -37.476562 6.203125 -37.203125 C 4.855469 -37 3.855469 -35.886719 3.582031 -34.382812 L 1.6875 -24.78125 L -0.0273438 -24.523438 C -2.234375 -24.1875 -2.960938 -22.65625 -2.765625 -21.351562 C -2.59375 -20.207031 -1.75 -19.332031 -0.648438 -19.5 L 0.699219 -19.703125 L -1.242188 -9.339844 L -1.25 -9.378906 C -1.429688 -8.347656 -1.457031 -7.425781 -1.328125 -6.566406 C -0.695312 -2.402344 3.390625 -0.511719 7.597656 -1.148438 C 12.828125 -1.9375 16.613281 -6.476562 17.929688 -13.53125 C 17.964844 -13.828125 18.003906 -14.125 17.96875 -14.371094 C 17.78125 -15.597656 16.480469 -16.195312 15.214844 -16.003906 C 14.195312 -15.847656 13.136719 -15.105469 12.84375 -13.722656 Z M 12.84375 -13.722656 "/></g></g></g><g fill="#fd6155" fill-opacity="0.302"><g transform="translate(176.319676, 192.17737)"><g><path d="M 18.921875 -14.976562 C 17.972656 -10.738281 16.339844 -7.441406 14.625 -7.179688 C 14.054688 -7.09375 13.6875 -7.582031 13.601562 -8.15625 C 13.5625 -8.398438 13.554688 -8.734375 13.628906 -9.078125 L 15.027344 -16.140625 C 15.148438 -16.996094 15.199219 -17.753906 15.097656 -18.449219 C 14.511719 -22.332031 9.359375 -23.222656 6.96875 -23.574219 C 7.042969 -23.917969 7.027344 -24.292969 6.976562 -24.617188 C 6.695312 -26.5 4.777344 -27.839844 2.941406 -27.5625 C 0.53125 -27.195312 -0.578125 -24.855469 -0.226562 -22.527344 C -0.0742188 -21.507812 0.453125 -20.5 1.230469 -19.78125 L -0.535156 -11.285156 C -0.566406 -10.945312 -0.558594 -10.613281 -0.519531 -10.367188 C -0.316406 -9.019531 0.847656 -8.484375 1.992188 -8.65625 C 3.136719 -8.832031 4.222656 -9.664062 4.515625 -11.042969 L 5.878906 -17.515625 C 7.078125 -17.320312 8.632812 -17.265625 8.839844 -15.875 C 8.871094 -15.671875 8.867188 -15.421875 8.828125 -15.121094 L 7.785156 -9.867188 C 7.601562 -8.878906 7.566406 -7.996094 7.691406 -7.179688 C 8.226562 -3.625 11.398438 -1.722656 14.789062 -2.234375 C 19.242188 -2.90625 22.6875 -7.480469 24.054688 -14.746094 C 24.097656 -15.003906 24.109375 -15.214844 24.078125 -15.417969 C 23.890625 -16.644531 22.421875 -17.257812 21.113281 -17.0625 C 20.050781 -16.898438 19.105469 -16.257812 18.921875 -14.976562 Z M 18.921875 -14.976562 "/></g></g></g><g fill="#fd6155" fill-opacity="0.302"><g transform="translate(195.637827, 189.259443)"><g><path d="M 15.988281 -11.148438 C 15.996094 -11.105469 15.898438 -11.761719 15.617188 -12.511719 C 15.871094 -12.757812 16.109375 -13.128906 16.296875 -13.535156 C 16.839844 -14.660156 17.527344 -18.398438 17.28125 -20.035156 C 16.652344 -24.199219 12.800781 -26.460938 8.386719 -25.792969 C 4.546875 -25.214844 1.234375 -22.539062 0.476562 -18.707031 L -1.234375 -9.839844 C -1.449219 -8.765625 -1.457031 -7.71875 -1.324219 -6.820312 C -0.675781 -2.53125 3.390625 -0.511719 7.558594 -1.140625 C 10.742188 -1.621094 13.488281 -3.082031 14.761719 -6.28125 C 15.527344 -6.1875 16.402344 -6.195312 17.261719 -6.324219 C 22.082031 -7.054688 25.363281 -11.058594 26.105469 -15.558594 C 26.160156 -16.027344 26.179688 -16.445312 26.121094 -16.816406 C 25.894531 -18.324219 24.660156 -19.015625 23.476562 -18.839844 C 22.375 -18.671875 21.328125 -17.84375 21.109375 -16.265625 C 20.59375 -13.597656 18.976562 -11.558594 16.566406 -11.191406 C 16.40625 -11.167969 16.160156 -11.132812 15.988281 -11.148438 Z M 11.242188 -16.863281 C 11.171875 -16.480469 11.101562 -16.132812 11.109375 -15.800781 C 8.824219 -15.707031 7.101562 -13.566406 7.472656 -11.113281 C 7.722656 -9.730469 8.527344 -9.101562 9.402344 -8.566406 C 9.085938 -7.054688 8.007812 -6.179688 6.742188 -5.992188 C 5.148438 -5.75 4.589844 -6.667969 4.445312 -7.648438 C 4.328125 -8.425781 4.417969 -9.191406 4.519531 -9.625 L 6.167969 -18.355469 C 6.457031 -19.777344 7.769531 -20.769531 9.035156 -20.960938 C 10.300781 -21.152344 11.246094 -20.417969 11.390625 -19.476562 C 11.5 -18.742188 11.398438 -17.765625 11.242188 -16.863281 Z M 11.242188 -16.863281 "/></g></g></g><g fill="#fd6155" fill-opacity="0.302"><g transform="translate(216.957227, 186.039235)"><g><path d="M 4.589844 -7.503906 L 9.417969 -33.636719 C 9.507812 -34.152344 9.515625 -34.652344 9.453125 -35.0625 C 9.21875 -36.613281 7.59375 -37.414062 6.367188 -37.230469 C 4.816406 -36.996094 3.925781 -35.980469 3.546875 -34.046875 L -1.285156 -8.496094 C -1.46875 -7.507812 -1.503906 -6.625 -1.371094 -5.765625 C -0.804688 -2.007812 2.613281 -0.394531 6.210938 -0.9375 C 10.089844 -1.523438 14.585938 -4.667969 16.164062 -13.597656 C 16.203125 -13.894531 16.199219 -14.1875 16.164062 -14.433594 C 15.964844 -15.738281 14.679688 -16.507812 13.414062 -16.316406 C 12.390625 -16.160156 11.382812 -15.382812 11.039062 -13.785156 C 9.941406 -8.605469 7.886719 -6.164062 5.964844 -5.875 C 5.148438 -5.75 4.625 -6.171875 4.53125 -6.785156 C 4.507812 -6.949219 4.546875 -7.246094 4.589844 -7.503906 Z M 4.589844 -7.503906 "/></g></g></g><g fill="#fd6155" fill-opacity="0.302"><g transform="translate(228.352082, 184.318088)"><g><path d="M 4.589844 -7.503906 L 9.417969 -33.636719 C 9.507812 -34.152344 9.515625 -34.652344 9.453125 -35.0625 C 9.21875 -36.613281 7.59375 -37.414062 6.367188 -37.230469 C 4.816406 -36.996094 3.925781 -35.980469 3.546875 -34.046875 L -1.285156 -8.496094 C -1.46875 -7.507812 -1.503906 -6.625 -1.371094 -5.765625 C -0.804688 -2.007812 2.613281 -0.394531 6.210938 -0.9375 C 10.089844 -1.523438 14.585938 -4.667969 16.164062 -13.597656 C 16.203125 -13.894531 16.199219 -14.1875 16.164062 -14.433594 C 15.964844 -15.738281 14.679688 -16.507812 13.414062 -16.316406 C 12.390625 -16.160156 11.382812 -15.382812 11.039062 -13.785156 C 9.941406 -8.605469 7.886719 -6.164062 5.964844 -5.875 C 5.148438 -5.75 4.625 -6.171875 4.53125 -6.785156 C 4.507812 -6.949219 4.546875 -7.246094 4.589844 -7.503906 Z M 4.589844 -7.503906 "/></g></g></g><g fill="#fd6155" fill-opacity="0.302"><g transform="translate(239.746938, 182.596942)"><g><path d="M 18.929688 -14.640625 C 17.847656 -9.632812 13.847656 -7.0625 10.378906 -6.539062 C 7.394531 -6.089844 5.300781 -7.234375 5.015625 -9.113281 C 4.960938 -9.480469 4.945312 -9.855469 5.046875 -10.289062 L 5.257812 -11.113281 C 6.554688 -10.558594 8.097656 -10.289062 9.730469 -10.535156 C 13.449219 -11.097656 16.363281 -13.921875 16.914062 -17.761719 C 17 -18.570312 17.003906 -19.363281 16.898438 -20.058594 C 16.3125 -23.941406 12.800781 -26.460938 8.183594 -25.761719 C 4.546875 -25.214844 1.316406 -22.550781 0.503906 -18.25 L -0.851562 -10.902344 C -1.03125 -9.871094 -1.085938 -8.859375 -0.945312 -7.921875 C -0.210938 -3.058594 4.820312 -0.726562 10.785156 -1.628906 C 16.460938 -2.488281 22.496094 -6.238281 24.015625 -14.449219 C 24.089844 -14.792969 24.085938 -15.085938 24.046875 -15.332031 C 23.859375 -16.597656 22.609375 -17.121094 21.382812 -16.933594 C 20.238281 -16.761719 19.105469 -15.964844 18.929688 -14.640625 Z M 8.789062 -20.921875 C 9.933594 -21.097656 10.808594 -20.269531 10.988281 -19.082031 C 11.039062 -18.757812 11.046875 -18.421875 10.972656 -18.078125 C 10.769531 -16.667969 9.617188 -15.992188 8.390625 -15.808594 C 7.617188 -15.691406 6.816406 -15.738281 6.195312 -15.976562 L 6.679688 -18.558594 C 6.941406 -19.890625 7.851562 -20.78125 8.789062 -20.921875 Z M 8.789062 -20.921875 "/></g></g></g><g fill="#fd6155" fill-opacity="0.302"><g transform="translate(259.105932, 179.672845)"><g><path d="M 18.921875 -14.976562 C 17.972656 -10.738281 16.339844 -7.441406 14.625 -7.179688 C 14.054688 -7.09375 13.6875 -7.582031 13.601562 -8.15625 C 13.5625 -8.398438 13.554688 -8.734375 13.628906 -9.078125 L 15.027344 -16.140625 C 15.148438 -16.996094 15.199219 -17.753906 15.097656 -18.449219 C 14.511719 -22.332031 9.359375 -23.222656 6.96875 -23.574219 C 7.042969 -23.917969 7.027344 -24.292969 6.976562 -24.617188 C 6.695312 -26.5 4.777344 -27.839844 2.941406 -27.5625 C 0.53125 -27.195312 -0.578125 -24.855469 -0.226562 -22.527344 C -0.0742188 -21.507812 0.453125 -20.5 1.230469 -19.78125 L -0.535156 -11.285156 C -0.566406 -10.945312 -0.558594 -10.613281 -0.519531 -10.367188 C -0.316406 -9.019531 0.847656 -8.484375 1.992188 -8.65625 C 3.136719 -8.832031 4.222656 -9.664062 4.515625 -11.042969 L 5.878906 -17.515625 C 7.078125 -17.320312 8.632812 -17.265625 8.839844 -15.875 C 8.871094 -15.671875 8.867188 -15.421875 8.828125 -15.121094 L 7.785156 -9.867188 C 7.601562 -8.878906 7.566406 -7.996094 7.691406 -7.179688 C 8.226562 -3.625 11.398438 -1.722656 14.789062 -2.234375 C 19.242188 -2.90625 22.6875 -7.480469 24.054688 -14.746094 C 24.097656 -15.003906 24.109375 -15.214844 24.078125 -15.417969 C 23.890625 -16.644531 22.421875 -17.257812 21.113281 -17.0625 C 20.050781 -16.898438 19.105469 -16.257812 18.921875 -14.976562 Z M 18.921875 -14.976562 "/></g></g></g><g fill="#fd6155" fill-opacity="0.502"><g transform="translate(102.842451, 202.689332)"><g><path d="M 19.636719 -15.5 C 18.5 -10.023438 14.464844 -7.40625 11.199219 -6.914062 C 7.96875 -6.425781 4.496094 -7.867188 4.085938 -10.5625 C 3.996094 -11.175781 3.972656 -11.882812 4.113281 -12.613281 L 7.09375 -27.726562 C 7.667969 -30.574219 9.277344 -31.234375 10.257812 -31.382812 C 11.199219 -31.523438 11.9375 -31.050781 12.125 -29.824219 C 12.210938 -29.253906 12.160156 -28.492188 11.953125 -27.628906 C 11.875 -27.324219 11.878906 -27.03125 11.921875 -26.746094 C 12.136719 -25.316406 13.703125 -24.339844 15.296875 -24.582031 C 16.726562 -24.796875 18.171875 -26.019531 18.5 -28.824219 C 18.625 -29.929688 18.601562 -30.929688 18.472656 -31.785156 C 17.792969 -36.28125 13.84375 -38.359375 9.1875 -37.65625 C 6.203125 -37.203125 1.773438 -35.28125 0.535156 -28.828125 L -2.371094 -13.472656 C -2.628906 -12.136719 -2.664062 -10.710938 -2.476562 -9.488281 C -1.667969 -4.136719 3.878906 -0.585938 10.988281 -1.660156 C 16.667969 -2.515625 23.296875 -6.484375 24.621094 -14.875 C 24.652344 -15.214844 24.648438 -15.503906 24.613281 -15.75 C 24.394531 -17.179688 23.007812 -17.804688 21.738281 -17.613281 C 20.679688 -17.453125 19.738281 -16.769531 19.636719 -15.5 Z M 19.636719 -15.5 "/></g></g></g><g fill="#fd6155" fill-opacity="0.502"><g transform="translate(122.81407, 199.672701)"><g><path d="M 15.988281 -11.148438 C 15.996094 -11.105469 15.898438 -11.761719 15.617188 -12.511719 C 15.871094 -12.757812 16.109375 -13.128906 16.296875 -13.535156 C 16.839844 -14.660156 17.527344 -18.398438 17.28125 -20.035156 C 16.652344 -24.199219 12.800781 -26.460938 8.386719 -25.792969 C 4.546875 -25.214844 1.234375 -22.539062 0.476562 -18.707031 L -1.234375 -9.839844 C -1.449219 -8.765625 -1.457031 -7.71875 -1.324219 -6.820312 C -0.675781 -2.53125 3.390625 -0.511719 7.558594 -1.140625 C 10.742188 -1.621094 13.488281 -3.082031 14.761719 -6.28125 C 15.527344 -6.1875 16.402344 -6.195312 17.261719 -6.324219 C 22.082031 -7.054688 25.363281 -11.058594 26.105469 -15.558594 C 26.160156 -16.027344 26.179688 -16.445312 26.121094 -16.816406 C 25.894531 -18.324219 24.660156 -19.015625 23.476562 -18.839844 C 22.375 -18.671875 21.328125 -17.84375 21.109375 -16.265625 C 20.59375 -13.597656 18.976562 -11.558594 16.566406 -11.191406 C 16.40625 -11.167969 16.160156 -11.132812 15.988281 -11.148438 Z M 11.242188 -16.863281 C 11.171875 -16.480469 11.101562 -16.132812 11.109375 -15.800781 C 8.824219 -15.707031 7.101562 -13.566406 7.472656 -11.113281 C 7.722656 -9.730469 8.527344 -9.101562 9.402344 -8.566406 C 9.085938 -7.054688 8.007812 -6.179688 6.742188 -5.992188 C 5.148438 -5.75 4.589844 -6.667969 4.445312 -7.648438 C 4.328125 -8.425781 4.417969 -9.191406 4.519531 -9.625 L 6.167969 -18.355469 C 6.457031 -19.777344 7.769531 -20.769531 9.035156 -20.960938 C 10.300781 -21.152344 11.246094 -20.417969 11.390625 -19.476562 C 11.5 -18.742188 11.398438 -17.765625 11.242188 -16.863281 Z M 11.242188 -16.863281 "/></g></g></g><g fill="#fd6155" fill-opacity="0.502"><g transform="translate(144.13347, 196.452493)"><g><path d="M 21.015625 -15.207031 C 19.960938 -10.035156 18.015625 -7.691406 16.097656 -7.402344 C 15.359375 -7.292969 14.898438 -7.597656 14.792969 -8.292969 C 14.75 -8.578125 14.78125 -8.917969 14.839844 -9.34375 L 16.660156 -18.894531 C 16.820312 -19.753906 16.875 -20.515625 16.769531 -21.210938 C 16.273438 -24.476562 13.125 -26.507812 9.859375 -26.015625 C 8.265625 -25.773438 7.054688 -25.214844 6.109375 -24.277344 C 5.753906 -24.976562 4.671875 -25.230469 3.566406 -25.066406 C 2.425781 -24.890625 1.402344 -24.195312 1.164062 -22.988281 L -2.773438 -2.882812 C -2.84375 -2.496094 -2.832031 -2.164062 -2.785156 -1.835938 C -2.554688 -0.324219 -1.253906 0.273438 0.0546875 0.0742188 C 1.484375 -0.140625 2.980469 -1.285156 3.316406 -3.214844 C 4.148438 -7.394531 5.261719 -13.289062 6.058594 -17.417969 C 6.855469 -19.628906 8.136719 -20.824219 9.28125 -20.996094 C 10.015625 -21.109375 10.621094 -20.699219 10.738281 -19.921875 C 10.78125 -19.636719 10.753906 -19.257812 10.6875 -18.871094 L 8.976562 -10.003906 C 8.792969 -9.015625 8.722656 -8.085938 8.851562 -7.226562 C 9.421875 -3.46875 12.828125 -1.9375 16.300781 -2.460938 C 20.464844 -3.089844 24.492188 -6.582031 26.109375 -14.972656 C 26.179688 -15.320312 26.214844 -15.660156 26.171875 -15.945312 C 25.972656 -17.25 24.683594 -17.765625 23.457031 -17.582031 C 22.355469 -17.414062 21.222656 -16.617188 21.015625 -15.207031 Z M 21.015625 -15.207031 "/></g></g></g><g fill="#fd6155" fill-opacity="0.502"><g transform="translate(165.575401, 193.213777)"><g><path d="M 12.84375 -13.722656 C 11.886719 -8.980469 9.640625 -6.429688 7.273438 -6.070312 C 5.800781 -5.847656 4.765625 -6.613281 4.601562 -7.714844 C 4.558594 -8 4.589844 -8.339844 4.628906 -8.636719 L 6.910156 -20.640625 L 9.566406 -21.039062 C 11.648438 -21.355469 12.53125 -22.992188 12.324219 -24.339844 C 12.164062 -25.402344 11.328125 -26.238281 9.777344 -26.003906 L 7.9375 -25.726562 L 9.472656 -34.105469 C 9.511719 -34.402344 9.515625 -34.652344 9.476562 -34.898438 C 9.25 -36.410156 8.003906 -37.476562 6.203125 -37.203125 C 4.855469 -37 3.855469 -35.886719 3.582031 -34.382812 L 1.6875 -24.78125 L -0.0273438 -24.523438 C -2.234375 -24.1875 -2.960938 -22.65625 -2.765625 -21.351562 C -2.59375 -20.207031 -1.75 -19.332031 -0.648438 -19.5 L 0.699219 -19.703125 L -1.242188 -9.339844 L -1.25 -9.378906 C -1.429688 -8.347656 -1.457031 -7.425781 -1.328125 -6.566406 C -0.695312 -2.402344 3.390625 -0.511719 7.597656 -1.148438 C 12.828125 -1.9375 16.613281 -6.476562 17.929688 -13.53125 C 17.964844 -13.828125 18.003906 -14.125 17.96875 -14.371094 C 17.78125 -15.597656 16.480469 -16.195312 15.214844 -16.003906 C 14.195312 -15.847656 13.136719 -15.105469 12.84375 -13.722656 Z M 12.84375 -13.722656 "/></g></g></g><g fill="#fd6155" fill-opacity="0.502"><g transform="translate(178.930661, 191.19652)"><g><path d="M 18.921875 -14.976562 C 17.972656 -10.738281 16.339844 -7.441406 14.625 -7.179688 C 14.054688 -7.09375 13.6875 -7.582031 13.601562 -8.15625 C 13.5625 -8.398438 13.554688 -8.734375 13.628906 -9.078125 L 15.027344 -16.140625 C 15.148438 -16.996094 15.199219 -17.753906 15.097656 -18.449219 C 14.511719 -22.332031 9.359375 -23.222656 6.96875 -23.574219 C 7.042969 -23.917969 7.027344 -24.292969 6.976562 -24.617188 C 6.695312 -26.5 4.777344 -27.839844 2.941406 -27.5625 C 0.53125 -27.195312 -0.578125 -24.855469 -0.226562 -22.527344 C -0.0742188 -21.507812 0.453125 -20.5 1.230469 -19.78125 L -0.535156 -11.285156 C -0.566406 -10.945312 -0.558594 -10.613281 -0.519531 -10.367188 C -0.316406 -9.019531 0.847656 -8.484375 1.992188 -8.65625 C 3.136719 -8.832031 4.222656 -9.664062 4.515625 -11.042969 L 5.878906 -17.515625 C 7.078125 -17.320312 8.632812 -17.265625 8.839844 -15.875 C 8.871094 -15.671875 8.867188 -15.421875 8.828125 -15.121094 L 7.785156 -9.867188 C 7.601562 -8.878906 7.566406 -7.996094 7.691406 -7.179688 C 8.226562 -3.625 11.398438 -1.722656 14.789062 -2.234375 C 19.242188 -2.90625 22.6875 -7.480469 24.054688 -14.746094 C 24.097656 -15.003906 24.109375 -15.214844 24.078125 -15.417969 C 23.890625 -16.644531 22.421875 -17.257812 21.113281 -17.0625 C 20.050781 -16.898438 19.105469 -16.257812 18.921875 -14.976562 Z M 18.921875 -14.976562 "/></g></g></g><g fill="#fd6155" fill-opacity="0.502"><g transform="translate(198.248812, 188.278592)"><g><path d="M 15.988281 -11.148438 C 15.996094 -11.105469 15.898438 -11.761719 15.617188 -12.511719 C 15.871094 -12.757812 16.109375 -13.128906 16.296875 -13.535156 C 16.839844 -14.660156 17.527344 -18.398438 17.28125 -20.035156 C 16.652344 -24.199219 12.800781 -26.460938 8.386719 -25.792969 C 4.546875 -25.214844 1.234375 -22.539062 0.476562 -18.707031 L -1.234375 -9.839844 C -1.449219 -8.765625 -1.457031 -7.71875 -1.324219 -6.820312 C -0.675781 -2.53125 3.390625 -0.511719 7.558594 -1.140625 C 10.742188 -1.621094 13.488281 -3.082031 14.761719 -6.28125 C 15.527344 -6.1875 16.402344 -6.195312 17.261719 -6.324219 C 22.082031 -7.054688 25.363281 -11.058594 26.105469 -15.558594 C 26.160156 -16.027344 26.179688 -16.445312 26.121094 -16.816406 C 25.894531 -18.324219 24.660156 -19.015625 23.476562 -18.839844 C 22.375 -18.671875 21.328125 -17.84375 21.109375 -16.265625 C 20.59375 -13.597656 18.976562 -11.558594 16.566406 -11.191406 C 16.40625 -11.167969 16.160156 -11.132812 15.988281 -11.148438 Z M 11.242188 -16.863281 C 11.171875 -16.480469 11.101562 -16.132812 11.109375 -15.800781 C 8.824219 -15.707031 7.101562 -13.566406 7.472656 -11.113281 C 7.722656 -9.730469 8.527344 -9.101562 9.402344 -8.566406 C 9.085938 -7.054688 8.007812 -6.179688 6.742188 -5.992188 C 5.148438 -5.75 4.589844 -6.667969 4.445312 -7.648438 C 4.328125 -8.425781 4.417969 -9.191406 4.519531 -9.625 L 6.167969 -18.355469 C 6.457031 -19.777344 7.769531 -20.769531 9.035156 -20.960938 C 10.300781 -21.152344 11.246094 -20.417969 11.390625 -19.476562 C 11.5 -18.742188 11.398438 -17.765625 11.242188 -16.863281 Z M 11.242188 -16.863281 "/></g></g></g><g fill="#fd6155" fill-opacity="0.502"><g transform="translate(219.568212, 185.058384)"><g><path d="M 4.589844 -7.503906 L 9.417969 -33.636719 C 9.507812 -34.152344 9.515625 -34.652344 9.453125 -35.0625 C 9.21875 -36.613281 7.59375 -37.414062 6.367188 -37.230469 C 4.816406 -36.996094 3.925781 -35.980469 3.546875 -34.046875 L -1.285156 -8.496094 C -1.46875 -7.507812 -1.503906 -6.625 -1.371094 -5.765625 C -0.804688 -2.007812 2.613281 -0.394531 6.210938 -0.9375 C 10.089844 -1.523438 14.585938 -4.667969 16.164062 -13.597656 C 16.203125 -13.894531 16.199219 -14.1875 16.164062 -14.433594 C 15.964844 -15.738281 14.679688 -16.507812 13.414062 -16.316406 C 12.390625 -16.160156 11.382812 -15.382812 11.039062 -13.785156 C 9.941406 -8.605469 7.886719 -6.164062 5.964844 -5.875 C 5.148438 -5.75 4.625 -6.171875 4.53125 -6.785156 C 4.507812 -6.949219 4.546875 -7.246094 4.589844 -7.503906 Z M 4.589844 -7.503906 "/></g></g></g><g fill="#fd6155" fill-opacity="0.502"><g transform="translate(230.963067, 183.337238)"><g><path d="M 4.589844 -7.503906 L 9.417969 -33.636719 C 9.507812 -34.152344 9.515625 -34.652344 9.453125 -35.0625 C 9.21875 -36.613281 7.59375 -37.414062 6.367188 -37.230469 C 4.816406 -36.996094 3.925781 -35.980469 3.546875 -34.046875 L -1.285156 -8.496094 C -1.46875 -7.507812 -1.503906 -6.625 -1.371094 -5.765625 C -0.804688 -2.007812 2.613281 -0.394531 6.210938 -0.9375 C 10.089844 -1.523438 14.585938 -4.667969 16.164062 -13.597656 C 16.203125 -13.894531 16.199219 -14.1875 16.164062 -14.433594 C 15.964844 -15.738281 14.679688 -16.507812 13.414062 -16.316406 C 12.390625 -16.160156 11.382812 -15.382812 11.039062 -13.785156 C 9.941406 -8.605469 7.886719 -6.164062 5.964844 -5.875 C 5.148438 -5.75 4.625 -6.171875 4.53125 -6.785156 C 4.507812 -6.949219 4.546875 -7.246094 4.589844 -7.503906 Z M 4.589844 -7.503906 "/></g></g></g><g fill="#fd6155" fill-opacity="0.502"><g transform="translate(242.357923, 181.616092)"><g><path d="M 18.929688 -14.640625 C 17.847656 -9.632812 13.847656 -7.0625 10.378906 -6.539062 C 7.394531 -6.089844 5.300781 -7.234375 5.015625 -9.113281 C 4.960938 -9.480469 4.945312 -9.855469 5.046875 -10.289062 L 5.257812 -11.113281 C 6.554688 -10.558594 8.097656 -10.289062 9.730469 -10.535156 C 13.449219 -11.097656 16.363281 -13.921875 16.914062 -17.761719 C 17 -18.570312 17.003906 -19.363281 16.898438 -20.058594 C 16.3125 -23.941406 12.800781 -26.460938 8.183594 -25.761719 C 4.546875 -25.214844 1.316406 -22.550781 0.503906 -18.25 L -0.851562 -10.902344 C -1.03125 -9.871094 -1.085938 -8.859375 -0.945312 -7.921875 C -0.210938 -3.058594 4.820312 -0.726562 10.785156 -1.628906 C 16.460938 -2.488281 22.496094 -6.238281 24.015625 -14.449219 C 24.089844 -14.792969 24.085938 -15.085938 24.046875 -15.332031 C 23.859375 -16.597656 22.609375 -17.121094 21.382812 -16.933594 C 20.238281 -16.761719 19.105469 -15.964844 18.929688 -14.640625 Z M 8.789062 -20.921875 C 9.933594 -21.097656 10.808594 -20.269531 10.988281 -19.082031 C 11.039062 -18.757812 11.046875 -18.421875 10.972656 -18.078125 C 10.769531 -16.667969 9.617188 -15.992188 8.390625 -15.808594 C 7.617188 -15.691406 6.816406 -15.738281 6.195312 -15.976562 L 6.679688 -18.558594 C 6.941406 -19.890625 7.851562 -20.78125 8.789062 -20.921875 Z M 8.789062 -20.921875 "/></g></g></g><g fill="#fd6155" fill-opacity="0.502"><g transform="translate(261.716918, 178.691995)"><g><path d="M 18.921875 -14.976562 C 17.972656 -10.738281 16.339844 -7.441406 14.625 -7.179688 C 14.054688 -7.09375 13.6875 -7.582031 13.601562 -8.15625 C 13.5625 -8.398438 13.554688 -8.734375 13.628906 -9.078125 L 15.027344 -16.140625 C 15.148438 -16.996094 15.199219 -17.753906 15.097656 -18.449219 C 14.511719 -22.332031 9.359375 -23.222656 6.96875 -23.574219 C 7.042969 -23.917969 7.027344 -24.292969 6.976562 -24.617188 C 6.695312 -26.5 4.777344 -27.839844 2.941406 -27.5625 C 0.53125 -27.195312 -0.578125 -24.855469 -0.226562 -22.527344 C -0.0742188 -21.507812 0.453125 -20.5 1.230469 -19.78125 L -0.535156 -11.285156 C -0.566406 -10.945312 -0.558594 -10.613281 -0.519531 -10.367188 C -0.316406 -9.019531 0.847656 -8.484375 1.992188 -8.65625 C 3.136719 -8.832031 4.222656 -9.664062 4.515625 -11.042969 L 5.878906 -17.515625 C 7.078125 -17.320312 8.632812 -17.265625 8.839844 -15.875 C 8.871094 -15.671875 8.867188 -15.421875 8.828125 -15.121094 L 7.785156 -9.867188 C 7.601562 -8.878906 7.566406 -7.996094 7.691406 -7.179688 C 8.226562 -3.625 11.398438 -1.722656 14.789062 -2.234375 C 19.242188 -2.90625 22.6875 -7.480469 24.054688 -14.746094 C 24.097656 -15.003906 24.109375 -15.214844 24.078125 -15.417969 C 23.890625 -16.644531 22.421875 -17.257812 21.113281 -17.0625 C 20.050781 -16.898438 19.105469 -16.257812 18.921875 -14.976562 Z M 18.921875 -14.976562 "/></g></g></g><g fill="#f6f3e4" fill-opacity="1"><g transform="translate(105.453427, 201.708482)"><g><path d="M 19.636719 -15.5 C 18.5 -10.023438 14.464844 -7.40625 11.199219 -6.914062 C 7.96875 -6.425781 4.496094 -7.867188 4.085938 -10.5625 C 3.996094 -11.175781 3.972656 -11.882812 4.113281 -12.613281 L 7.09375 -27.726562 C 7.667969 -30.574219 9.277344 -31.234375 10.257812 -31.382812 C 11.199219 -31.523438 11.9375 -31.050781 12.125 -29.824219 C 12.210938 -29.253906 12.160156 -28.492188 11.953125 -27.628906 C 11.875 -27.324219 11.878906 -27.03125 11.921875 -26.746094 C 12.136719 -25.316406 13.703125 -24.339844 15.296875 -24.582031 C 16.726562 -24.796875 18.171875 -26.019531 18.5 -28.824219 C 18.625 -29.929688 18.601562 -30.929688 18.472656 -31.785156 C 17.792969 -36.28125 13.84375 -38.359375 9.1875 -37.65625 C 6.203125 -37.203125 1.773438 -35.28125 0.535156 -28.828125 L -2.371094 -13.472656 C -2.628906 -12.136719 -2.664062 -10.710938 -2.476562 -9.488281 C -1.667969 -4.136719 3.878906 -0.585938 10.988281 -1.660156 C 16.667969 -2.515625 23.296875 -6.484375 24.621094 -14.875 C 24.652344 -15.214844 24.648438 -15.503906 24.613281 -15.75 C 24.394531 -17.179688 23.007812 -17.804688 21.738281 -17.613281 C 20.679688 -17.453125 19.738281 -16.769531 19.636719 -15.5 Z M 19.636719 -15.5 "/></g></g></g><g fill="#f6f3e4" fill-opacity="1"><g transform="translate(125.425046, 198.691851)"><g><path d="M 15.988281 -11.148438 C 15.996094 -11.105469 15.898438 -11.761719 15.617188 -12.511719 C 15.871094 -12.757812 16.109375 -13.128906 16.296875 -13.535156 C 16.839844 -14.660156 17.527344 -18.398438 17.28125 -20.035156 C 16.652344 -24.199219 12.800781 -26.460938 8.386719 -25.792969 C 4.546875 -25.214844 1.234375 -22.539062 0.476562 -18.707031 L -1.234375 -9.839844 C -1.449219 -8.765625 -1.457031 -7.71875 -1.324219 -6.820312 C -0.675781 -2.53125 3.390625 -0.511719 7.558594 -1.140625 C 10.742188 -1.621094 13.488281 -3.082031 14.761719 -6.28125 C 15.527344 -6.1875 16.402344 -6.195312 17.261719 -6.324219 C 22.082031 -7.054688 25.363281 -11.058594 26.105469 -15.558594 C 26.160156 -16.027344 26.179688 -16.445312 26.121094 -16.816406 C 25.894531 -18.324219 24.660156 -19.015625 23.476562 -18.839844 C 22.375 -18.671875 21.328125 -17.84375 21.109375 -16.265625 C 20.59375 -13.597656 18.976562 -11.558594 16.566406 -11.191406 C 16.40625 -11.167969 16.160156 -11.132812 15.988281 -11.148438 Z M 11.242188 -16.863281 C 11.171875 -16.480469 11.101562 -16.132812 11.109375 -15.800781 C 8.824219 -15.707031 7.101562 -13.566406 7.472656 -11.113281 C 7.722656 -9.730469 8.527344 -9.101562 9.402344 -8.566406 C 9.085938 -7.054688 8.007812 -6.179688 6.742188 -5.992188 C 5.148438 -5.75 4.589844 -6.667969 4.445312 -7.648438 C 4.328125 -8.425781 4.417969 -9.191406 4.519531 -9.625 L 6.167969 -18.355469 C 6.457031 -19.777344 7.769531 -20.769531 9.035156 -20.960938 C 10.300781 -21.152344 11.246094 -20.417969 11.390625 -19.476562 C 11.5 -18.742188 11.398438 -17.765625 11.242188 -16.863281 Z M 11.242188 -16.863281 "/></g></g></g><g fill="#f6f3e4" fill-opacity="1"><g transform="translate(146.744446, 195.471643)"><g><path d="M 21.015625 -15.207031 C 19.960938 -10.035156 18.015625 -7.691406 16.097656 -7.402344 C 15.359375 -7.292969 14.898438 -7.597656 14.792969 -8.292969 C 14.75 -8.578125 14.78125 -8.917969 14.839844 -9.34375 L 16.660156 -18.894531 C 16.820312 -19.753906 16.875 -20.515625 16.769531 -21.210938 C 16.273438 -24.476562 13.125 -26.507812 9.859375 -26.015625 C 8.265625 -25.773438 7.054688 -25.214844 6.109375 -24.277344 C 5.753906 -24.976562 4.671875 -25.230469 3.566406 -25.066406 C 2.425781 -24.890625 1.402344 -24.195312 1.164062 -22.988281 L -2.773438 -2.882812 C -2.84375 -2.496094 -2.832031 -2.164062 -2.785156 -1.835938 C -2.554688 -0.324219 -1.253906 0.273438 0.0546875 0.0742188 C 1.484375 -0.140625 2.980469 -1.285156 3.316406 -3.214844 C 4.148438 -7.394531 5.261719 -13.289062 6.058594 -17.417969 C 6.855469 -19.628906 8.136719 -20.824219 9.28125 -20.996094 C 10.015625 -21.109375 10.621094 -20.699219 10.738281 -19.921875 C 10.78125 -19.636719 10.753906 -19.257812 10.6875 -18.871094 L 8.976562 -10.003906 C 8.792969 -9.015625 8.722656 -8.085938 8.851562 -7.226562 C 9.421875 -3.46875 12.828125 -1.9375 16.300781 -2.460938 C 20.464844 -3.089844 24.492188 -6.582031 26.109375 -14.972656 C 26.179688 -15.320312 26.214844 -15.660156 26.171875 -15.945312 C 25.972656 -17.25 24.683594 -17.765625 23.457031 -17.582031 C 22.355469 -17.414062 21.222656 -16.617188 21.015625 -15.207031 Z M 21.015625 -15.207031 "/></g></g></g><g fill="#f6f3e4" fill-opacity="1"><g transform="translate(168.186376, 192.232927)"><g><path d="M 12.84375 -13.722656 C 11.886719 -8.980469 9.640625 -6.429688 7.273438 -6.070312 C 5.800781 -5.847656 4.765625 -6.613281 4.601562 -7.714844 C 4.558594 -8 4.589844 -8.339844 4.628906 -8.636719 L 6.910156 -20.640625 L 9.566406 -21.039062 C 11.648438 -21.355469 12.53125 -22.992188 12.324219 -24.339844 C 12.164062 -25.402344 11.328125 -26.238281 9.777344 -26.003906 L 7.9375 -25.726562 L 9.472656 -34.105469 C 9.511719 -34.402344 9.515625 -34.652344 9.476562 -34.898438 C 9.25 -36.410156 8.003906 -37.476562 6.203125 -37.203125 C 4.855469 -37 3.855469 -35.886719 3.582031 -34.382812 L 1.6875 -24.78125 L -0.0273438 -24.523438 C -2.234375 -24.1875 -2.960938 -22.65625 -2.765625 -21.351562 C -2.59375 -20.207031 -1.75 -19.332031 -0.648438 -19.5 L 0.699219 -19.703125 L -1.242188 -9.339844 L -1.25 -9.378906 C -1.429688 -8.347656 -1.457031 -7.425781 -1.328125 -6.566406 C -0.695312 -2.402344 3.390625 -0.511719 7.597656 -1.148438 C 12.828125 -1.9375 16.613281 -6.476562 17.929688 -13.53125 C 17.964844 -13.828125 18.003906 -14.125 17.96875 -14.371094 C 17.78125 -15.597656 16.480469 -16.195312 15.214844 -16.003906 C 14.195312 -15.847656 13.136719 -15.105469 12.84375 -13.722656 Z M 12.84375 -13.722656 "/></g></g></g><g fill="#f6f3e4" fill-opacity="1"><g transform="translate(181.541637, 190.215669)"><g><path d="M 18.921875 -14.976562 C 17.972656 -10.738281 16.339844 -7.441406 14.625 -7.179688 C 14.054688 -7.09375 13.6875 -7.582031 13.601562 -8.15625 C 13.5625 -8.398438 13.554688 -8.734375 13.628906 -9.078125 L 15.027344 -16.140625 C 15.148438 -16.996094 15.199219 -17.753906 15.097656 -18.449219 C 14.511719 -22.332031 9.359375 -23.222656 6.96875 -23.574219 C 7.042969 -23.917969 7.027344 -24.292969 6.976562 -24.617188 C 6.695312 -26.5 4.777344 -27.839844 2.941406 -27.5625 C 0.53125 -27.195312 -0.578125 -24.855469 -0.226562 -22.527344 C -0.0742188 -21.507812 0.453125 -20.5 1.230469 -19.78125 L -0.535156 -11.285156 C -0.566406 -10.945312 -0.558594 -10.613281 -0.519531 -10.367188 C -0.316406 -9.019531 0.847656 -8.484375 1.992188 -8.65625 C 3.136719 -8.832031 4.222656 -9.664062 4.515625 -11.042969 L 5.878906 -17.515625 C 7.078125 -17.320312 8.632812 -17.265625 8.839844 -15.875 C 8.871094 -15.671875 8.867188 -15.421875 8.828125 -15.121094 L 7.785156 -9.867188 C 7.601562 -8.878906 7.566406 -7.996094 7.691406 -7.179688 C 8.226562 -3.625 11.398438 -1.722656 14.789062 -2.234375 C 19.242188 -2.90625 22.6875 -7.480469 24.054688 -14.746094 C 24.097656 -15.003906 24.109375 -15.214844 24.078125 -15.417969 C 23.890625 -16.644531 22.421875 -17.257812 21.113281 -17.0625 C 20.050781 -16.898438 19.105469 -16.257812 18.921875 -14.976562 Z M 18.921875 -14.976562 "/></g></g></g><g fill="#f6f3e4" fill-opacity="1"><g transform="translate(200.859788, 187.297742)"><g><path d="M 15.988281 -11.148438 C 15.996094 -11.105469 15.898438 -11.761719 15.617188 -12.511719 C 15.871094 -12.757812 16.109375 -13.128906 16.296875 -13.535156 C 16.839844 -14.660156 17.527344 -18.398438 17.28125 -20.035156 C 16.652344 -24.199219 12.800781 -26.460938 8.386719 -25.792969 C 4.546875 -25.214844 1.234375 -22.539062 0.476562 -18.707031 L -1.234375 -9.839844 C -1.449219 -8.765625 -1.457031 -7.71875 -1.324219 -6.820312 C -0.675781 -2.53125 3.390625 -0.511719 7.558594 -1.140625 C 10.742188 -1.621094 13.488281 -3.082031 14.761719 -6.28125 C 15.527344 -6.1875 16.402344 -6.195312 17.261719 -6.324219 C 22.082031 -7.054688 25.363281 -11.058594 26.105469 -15.558594 C 26.160156 -16.027344 26.179688 -16.445312 26.121094 -16.816406 C 25.894531 -18.324219 24.660156 -19.015625 23.476562 -18.839844 C 22.375 -18.671875 21.328125 -17.84375 21.109375 -16.265625 C 20.59375 -13.597656 18.976562 -11.558594 16.566406 -11.191406 C 16.40625 -11.167969 16.160156 -11.132812 15.988281 -11.148438 Z M 11.242188 -16.863281 C 11.171875 -16.480469 11.101562 -16.132812 11.109375 -15.800781 C 8.824219 -15.707031 7.101562 -13.566406 7.472656 -11.113281 C 7.722656 -9.730469 8.527344 -9.101562 9.402344 -8.566406 C 9.085938 -7.054688 8.007812 -6.179688 6.742188 -5.992188 C 5.148438 -5.75 4.589844 -6.667969 4.445312 -7.648438 C 4.328125 -8.425781 4.417969 -9.191406 4.519531 -9.625 L 6.167969 -18.355469 C 6.457031 -19.777344 7.769531 -20.769531 9.035156 -20.960938 C 10.300781 -21.152344 11.246094 -20.417969 11.390625 -19.476562 C 11.5 -18.742188 11.398438 -17.765625 11.242188 -16.863281 Z M 11.242188 -16.863281 "/></g></g></g><g fill="#f6f3e4" fill-opacity="1"><g transform="translate(222.179187, 184.077534)"><g><path d="M 4.589844 -7.503906 L 9.417969 -33.636719 C 9.507812 -34.152344 9.515625 -34.652344 9.453125 -35.0625 C 9.21875 -36.613281 7.59375 -37.414062 6.367188 -37.230469 C 4.816406 -36.996094 3.925781 -35.980469 3.546875 -34.046875 L -1.285156 -8.496094 C -1.46875 -7.507812 -1.503906 -6.625 -1.371094 -5.765625 C -0.804688 -2.007812 2.613281 -0.394531 6.210938 -0.9375 C 10.089844 -1.523438 14.585938 -4.667969 16.164062 -13.597656 C 16.203125 -13.894531 16.199219 -14.1875 16.164062 -14.433594 C 15.964844 -15.738281 14.679688 -16.507812 13.414062 -16.316406 C 12.390625 -16.160156 11.382812 -15.382812 11.039062 -13.785156 C 9.941406 -8.605469 7.886719 -6.164062 5.964844 -5.875 C 5.148438 -5.75 4.625 -6.171875 4.53125 -6.785156 C 4.507812 -6.949219 4.546875 -7.246094 4.589844 -7.503906 Z M 4.589844 -7.503906 "/></g></g></g><g fill="#f6f3e4" fill-opacity="1"><g transform="translate(233.574043, 182.356388)"><g><path d="M 4.589844 -7.503906 L 9.417969 -33.636719 C 9.507812 -34.152344 9.515625 -34.652344 9.453125 -35.0625 C 9.21875 -36.613281 7.59375 -37.414062 6.367188 -37.230469 C 4.816406 -36.996094 3.925781 -35.980469 3.546875 -34.046875 L -1.285156 -8.496094 C -1.46875 -7.507812 -1.503906 -6.625 -1.371094 -5.765625 C -0.804688 -2.007812 2.613281 -0.394531 6.210938 -0.9375 C 10.089844 -1.523438 14.585938 -4.667969 16.164062 -13.597656 C 16.203125 -13.894531 16.199219 -14.1875 16.164062 -14.433594 C 15.964844 -15.738281 14.679688 -16.507812 13.414062 -16.316406 C 12.390625 -16.160156 11.382812 -15.382812 11.039062 -13.785156 C 9.941406 -8.605469 7.886719 -6.164062 5.964844 -5.875 C 5.148438 -5.75 4.625 -6.171875 4.53125 -6.785156 C 4.507812 -6.949219 4.546875 -7.246094 4.589844 -7.503906 Z M 4.589844 -7.503906 "/></g></g></g><g fill="#f6f3e4" fill-opacity="1"><g transform="translate(244.968899, 180.635241)"><g><path d="M 18.929688 -14.640625 C 17.847656 -9.632812 13.847656 -7.0625 10.378906 -6.539062 C 7.394531 -6.089844 5.300781 -7.234375 5.015625 -9.113281 C 4.960938 -9.480469 4.945312 -9.855469 5.046875 -10.289062 L 5.257812 -11.113281 C 6.554688 -10.558594 8.097656 -10.289062 9.730469 -10.535156 C 13.449219 -11.097656 16.363281 -13.921875 16.914062 -17.761719 C 17 -18.570312 17.003906 -19.363281 16.898438 -20.058594 C 16.3125 -23.941406 12.800781 -26.460938 8.183594 -25.761719 C 4.546875 -25.214844 1.316406 -22.550781 0.503906 -18.25 L -0.851562 -10.902344 C -1.03125 -9.871094 -1.085938 -8.859375 -0.945312 -7.921875 C -0.210938 -3.058594 4.820312 -0.726562 10.785156 -1.628906 C 16.460938 -2.488281 22.496094 -6.238281 24.015625 -14.449219 C 24.089844 -14.792969 24.085938 -15.085938 24.046875 -15.332031 C 23.859375 -16.597656 22.609375 -17.121094 21.382812 -16.933594 C 20.238281 -16.761719 19.105469 -15.964844 18.929688 -14.640625 Z M 8.789062 -20.921875 C 9.933594 -21.097656 10.808594 -20.269531 10.988281 -19.082031 C 11.039062 -18.757812 11.046875 -18.421875 10.972656 -18.078125 C 10.769531 -16.667969 9.617188 -15.992188 8.390625 -15.808594 C 7.617188 -15.691406 6.816406 -15.738281 6.195312 -15.976562 L 6.679688 -18.558594 C 6.941406 -19.890625 7.851562 -20.78125 8.789062 -20.921875 Z M 8.789062 -20.921875 "/></g></g></g><g fill="#f6f3e4" fill-opacity="1"><g transform="translate(264.327893, 177.711144)"><g><path d="M 18.921875 -14.976562 C 17.972656 -10.738281 16.339844 -7.441406 14.625 -7.179688 C 14.054688 -7.09375 13.6875 -7.582031 13.601562 -8.15625 C 13.5625 -8.398438 13.554688 -8.734375 13.628906 -9.078125 L 15.027344 -16.140625 C 15.148438 -16.996094 15.199219 -17.753906 15.097656 -18.449219 C 14.511719 -22.332031 9.359375 -23.222656 6.96875 -23.574219 C 7.042969 -23.917969 7.027344 -24.292969 6.976562 -24.617188 C 6.695312 -26.5 4.777344 -27.839844 2.941406 -27.5625 C 0.53125 -27.195312 -0.578125 -24.855469 -0.226562 -22.527344 C -0.0742188 -21.507812 0.453125 -20.5 1.230469 -19.78125 L -0.535156 -11.285156 C -0.566406 -10.945312 -0.558594 -10.613281 -0.519531 -10.367188 C -0.316406 -9.019531 0.847656 -8.484375 1.992188 -8.65625 C 3.136719 -8.832031 4.222656 -9.664062 4.515625 -11.042969 L 5.878906 -17.515625 C 7.078125 -17.320312 8.632812 -17.265625 8.839844 -15.875 C 8.871094 -15.671875 8.867188 -15.421875 8.828125 -15.121094 L 7.785156 -9.867188 C 7.601562 -8.878906 7.566406 -7.996094 7.691406 -7.179688 C 8.226562 -3.625 11.398438 -1.722656 14.789062 -2.234375 C 19.242188 -2.90625 22.6875 -7.480469 24.054688 -14.746094 C 24.097656 -15.003906 24.109375 -15.214844 24.078125 -15.417969 C 23.890625 -16.644531 22.421875 -17.257812 21.113281 -17.0625 C 20.050781 -16.898438 19.105469 -16.257812 18.921875 -14.976562 Z M 18.921875 -14.976562 "/></g></g></g><g mask="url(#d549c622ea)"><g transform="matrix(1, 0, 0, 1, 268, 89)"><g clip-path="url(#8006c49929)"><g clip-path="url(#1bc592fe29)"><path fill="#fd6155" d="M 35.8125 6.746094 C 20.097656 6.746094 7.355469 19.488281 7.355469 35.207031 C 7.355469 50.921875 20.097656 63.664062 35.8125 63.664062 C 51.53125 63.664062 64.273438 50.921875 64.273438 35.207031 C 64.273438 19.488281 51.53125 6.746094 35.8125 6.746094 Z M 1.03125 35.207031 C 1.03125 15.996094 16.601562 0.421875 35.8125 0.421875 C 55.023438 0.421875 70.597656 15.996094 70.597656 35.207031 C 70.597656 54.417969 55.023438 69.988281 35.8125 69.988281 C 16.601562 69.988281 1.03125 54.417969 1.03125 35.207031 Z M 1.03125 35.207031 " fill-opacity="1" fill-rule="evenodd"/></g><path fill="#fd6155" d="M 25.273438 25.480469 L 6.320312 29.273438 L 5.078125 23.070312 L 24.03125 19.28125 C 31.808594 17.726562 39.820312 17.726562 47.597656 19.28125 L 66.550781 23.070312 L 65.308594 29.273438 L 46.355469 25.480469 C 39.398438 24.089844 32.230469 24.089844 25.273438 25.480469 Z M 25.273438 25.480469 " fill-opacity="1" fill-rule="evenodd"/><path fill="#fd6155" d="M 9.457031 47.402344 L 5.699219 47.402344 L 5.699219 41.078125 L 9.457031 41.078125 C 19.339844 41.078125 28.023438 47.628906 30.742188 57.132812 L 32.832031 64.453125 L 26.75 66.191406 L 24.660156 58.871094 C 22.71875 52.082031 16.515625 47.402344 9.457031 47.402344 Z M 46.96875 58.871094 L 44.878906 66.191406 L 38.796875 64.453125 L 40.886719 57.132812 C 43.605469 47.628906 52.289062 41.078125 62.171875 41.078125 L 65.929688 41.078125 L 65.929688 47.402344 L 62.171875 47.402344 C 55.113281 47.402344 48.910156 52.082031 46.96875 58.871094 Z M 46.96875 58.871094 " fill-opacity="1" fill-rule="evenodd"/><path fill="#fd6155" d="M 35.816406 33.851562 C 34.234375 33.851562 32.953125 35.132812 32.953125 36.710938 C 32.953125 38.292969 34.234375 39.574219 35.816406 39.574219 C 37.394531 39.574219 38.675781 38.292969 38.675781 36.710938 C 38.675781 35.132812 37.394531 33.851562 35.816406 33.851562 Z M 26.628906 36.710938 C 26.628906 31.640625 30.742188 27.527344 35.816406 27.527344 C 40.886719 27.527344 45 31.640625 45 36.710938 C 45 41.785156 40.886719 45.898438 35.816406 45.898438 C 30.742188 45.898438 26.628906 41.785156 26.628906 36.710938 Z M 26.628906 36.710938 " fill-opacity="1" fill-rule="evenodd"/></g></g></g><g clip-path="url(#9398c5a139)"><path fill="#f6f3e4" d="M 306.058594 95.746094 C 290.339844 95.746094 277.597656 108.488281 277.597656 124.207031 C 277.597656 139.921875 290.339844 152.664062 306.058594 152.664062 C 321.773438 152.664062 334.515625 139.921875 334.515625 124.207031 C 334.515625 108.488281 321.773438 95.746094 306.058594 95.746094 Z M 271.273438 124.207031 C 271.273438 104.996094 286.847656 89.421875 306.058594 89.421875 C 325.265625 89.421875 340.839844 104.996094 340.839844 124.207031 C 340.839844 143.417969 325.265625 158.988281 306.058594 158.988281 C 286.847656 158.988281 271.273438 143.417969 271.273438 124.207031 Z M 271.273438 124.207031 " fill-opacity="1" fill-rule="evenodd"/></g><path fill="#f6f3e4" d="M 295.515625 114.480469 L 276.5625 118.273438 L 275.324219 112.070312 L 294.273438 108.28125 C 302.054688 106.726562 310.0625 106.726562 317.839844 108.28125 L 336.792969 112.070312 L 335.554688 118.273438 L 316.601562 114.480469 C 309.640625 113.089844 302.476562 113.089844 295.515625 114.480469 Z M 295.515625 114.480469 " fill-opacity="1" fill-rule="evenodd"/><path fill="#f6f3e4" d="M 279.703125 136.402344 L 275.941406 136.402344 L 275.941406 130.078125 L 279.703125 130.078125 C 289.585938 130.078125 298.269531 136.628906 300.984375 146.132812 L 303.074219 153.453125 L 296.996094 155.191406 L 294.902344 147.871094 C 292.964844 141.082031 286.761719 136.402344 279.703125 136.402344 Z M 317.214844 147.871094 L 315.121094 155.191406 L 309.042969 153.453125 L 311.132812 146.132812 C 313.847656 136.628906 322.53125 130.078125 332.414062 130.078125 L 336.175781 130.078125 L 336.175781 136.402344 L 332.414062 136.402344 C 325.355469 136.402344 319.152344 141.082031 317.214844 147.871094 Z M 317.214844 147.871094 " fill-opacity="1" fill-rule="evenodd"/><path fill="#f6f3e4" d="M 306.058594 122.851562 C 304.480469 122.851562 303.199219 124.132812 303.199219 125.710938 C 303.199219 127.292969 304.480469 128.574219 306.058594 128.574219 C 307.640625 128.574219 308.917969 127.292969 308.917969 125.710938 C 308.917969 124.132812 307.640625 122.851562 306.058594 122.851562 Z M 296.875 125.710938 C 296.875 120.640625 300.984375 116.527344 306.058594 116.527344 C 311.132812 116.527344 315.242188 120.640625 315.242188 125.710938 C 315.242188 130.785156 311.132812 134.898438 306.058594 134.898438 C 300.984375 134.898438 296.875 130.785156 296.875 125.710938 Z M 296.875 125.710938 " fill-opacity="1" fill-rule="evenodd"/></svg>